<svg xmlns="http://www.w3.org/2000/svg" version="1.1" xmlns:xlink="http://www.w3.org/1999/xlink"
  xmlns:svgjs="http://svgjs.dev/svgjs" viewBox="0 0 800 800" opacity=".2">
  <defs>
    <linearGradient x1="50%" y1="0%" x2="50%" y2="100%" id="vvvortex-grad">
      <stop stop-color="hsl(0, 0%, 13%)" stop-opacity=".5" offset="50%"></stop>
      <stop stop-color="hsl(141, 72%, 42%)" stop-opacity="1" offset="100%"></stop>
    </linearGradient>
  </defs>
  <g stroke="url(#vvvortex-grad)" fill="none" stroke-linecap="round">
    <circle r="472" cx="400" cy="400" stroke-width="15" stroke-dasharray="24 28" stroke-dashoffset="25"
      transform="rotate(314, 400, 400)" opacity="0.77"></circle>
    <circle r="442.5" cx="400" cy="400" stroke-width="14" stroke-dasharray="33 18" stroke-dashoffset="25"
      transform="rotate(184, 400, 400)" opacity="0.25"></circle>
    <circle r="413" cx="400" cy="400" stroke-width="14" stroke-dasharray="48 54" stroke-dashoffset="25"
      transform="rotate(322, 400, 400)" opacity="0.43"></circle>
    <circle r="383.5" cx="400" cy="400" stroke-width="13" stroke-dasharray="46 43" stroke-dashoffset="25"
      transform="rotate(305, 400, 400)" opacity="0.71"></circle>
    <circle r="354" cx="400" cy="400" stroke-width="13" stroke-dasharray="43 37" stroke-dashoffset="25"
      transform="rotate(315, 400, 400)" opacity="0.53"></circle>
    <circle r="324.5" cx="400" cy="400" stroke-width="13" stroke-dasharray="42 49" stroke-dashoffset="25"
      transform="rotate(119, 400, 400)" opacity="0.61"></circle>
    <circle r="295" cx="400" cy="400" stroke-width="12" stroke-dasharray="52 13" stroke-dashoffset="25"
      transform="rotate(141, 400, 400)" opacity="0.13"></circle>
    <circle r="265.5" cx="400" cy="400" stroke-width="12" stroke-dasharray="45 34" stroke-dashoffset="25"
      transform="rotate(276, 400, 400)" opacity="0.44"></circle>
    <circle r="236" cx="400" cy="400" stroke-width="11" stroke-dasharray="34 31" stroke-dashoffset="25"
      transform="rotate(143, 400, 400)" opacity="0.22"></circle>
    <circle r="206.5" cx="400" cy="400" stroke-width="11" stroke-dasharray="27 36" stroke-dashoffset="25"
      transform="rotate(357, 400, 400)" opacity="0.18"></circle>
    <circle r="177" cx="400" cy="400" stroke-width="11" stroke-dasharray="49 39" stroke-dashoffset="25"
      transform="rotate(315, 400, 400)" opacity="0.81"></circle>
    <circle r="147.5" cx="400" cy="400" stroke-width="10" stroke-dasharray="38 16" stroke-dashoffset="25"
      transform="rotate(121, 400, 400)" opacity="0.36"></circle>
    <circle r="118" cx="400" cy="400" stroke-width="10" stroke-dasharray="53 51" stroke-dashoffset="25"
      transform="rotate(335, 400, 400)" opacity="0.90"></circle>
    <circle r="88.5" cx="400" cy="400" stroke-width="9" stroke-dasharray="41 25" stroke-dashoffset="25"
      transform="rotate(278, 400, 400)" opacity="0.80"></circle>
    <circle r="59" cx="400" cy="400" stroke-width="9" stroke-dasharray="27 19" stroke-dashoffset="25"
      transform="rotate(195, 400, 400)" opacity="0.11"></circle>
    <circle r="29.5" cx="400" cy="400" stroke-width="9" stroke-dasharray="10 48" stroke-dashoffset="25"
      transform="rotate(248, 400, 400)" opacity="0.33"></circle>
  </g>
</svg>
