<svg viewBox="0 0 134 134" xmlns="http://www.w3.org/2000/svg" fill="none">
  <path id="svg_5" fill="#1ED760" d="m66,0c-36.45,0 -66,29.547 -66,66c0,36.453 29.55,66 66,66c36.45,0 66,-29.547 66,-66c0,-36.453 -29.55,-66 -66,-66zm32.2,95.143c-1.06,1.877 -3.01,2.933 -5.02,2.933c-0.94,0 -1.91,-0.235 -2.8,-0.73c-8.24,-4.62 -17.22,-7.45 -26.71,-8.411c-9.51,-0.953 -18.9,0.012 -27.92,2.892c-3.01,0.961 -6.25,-0.702 -7.21,-3.717c-0.97,-3.02 0.7,-6.249 3.72,-7.215c10.52,-3.361 21.49,-4.504 32.57,-3.378c11.06,1.126 21.54,4.426 31.16,9.818c2.77,1.542 3.76,5.04 2.21,7.808zm7.9,-20.047c-1.02,1.963 -3.02,3.089 -5.09,3.089c-0.9,0 -1.8,-0.206 -2.65,-0.651c-10.13,-5.276 -21.07,-8.543 -32.54,-9.707c-11.56,-1.183 -23.01,-0.152 -34.05,3.032c-3.05,0.866 -6.23,-0.878 -7.1,-3.927c-0.88,-3.044 0.88,-6.224 3.92,-7.103c12.46,-3.593 25.38,-4.744 38.39,-3.424c12.92,1.316 25.26,4.996 36.69,10.952c2.8,1.465 3.9,4.929 2.43,7.739zm2.86,-16.678c-0.86,0 -1.73,-0.194 -2.56,-0.602c-12.02,-5.994 -24.95,-9.727 -38.44,-11.096c-13.51,-1.382 -26.95,-0.314 -39.96,3.16c-3.06,0.812 -6.2,-1.003 -7.02,-4.068c-0.82,-3.061 1,-6.208 4.07,-7.025c14.35,-3.832 29.19,-4.999 44.08,-3.485c14.87,1.505 29.13,5.626 42.39,12.239c2.84,1.414 3.99,4.863 2.58,7.697c-1,2.017 -3.03,3.18 -5.14,3.18z"/>
</svg>
