<svg xmlns="http://www.w3.org/2000/svg" viewBox="0 0 496 652">
  <g transform="translate(-118.46 -235.15)">
    <path d="m374.44 235.15c-28.09 122.13-59.8 271.36-87.89 393.5-104.65-72.46-177.63-13.57-167.08 69.36 6.77 53.22 100.11 110.2 189.18 23.32 16.56-80.98 46.37-214.48 68.95-319.25l164.99 117.08c-16.84 75.9-33.39 151.3-51.51 230.11-104.65-72.46-177.71-13.58-167.16 69.35 6.77 53.22 100.13 110.12 189.2 23.24l101.09-438.1c-0.67-0.17-1.34-0.33-2.02-0.5l0.21-0.26c-14.48-11.42-223.54-164.18-237.96-167.85zm19.7 90.42l165.12 119.31c-2.51 11.13-4.94 22.14-7.41 33.16l-165.21-117.81c2.13-10.11 5.7-25.87 7.5-34.66z"/>
  </g>
</svg>
